<svg xmlns="http://www.w3.org/2000/svg" xmlns:xlink="http://www.w3.org/1999/xlink" viewBox="0 0 519.01 439.48">
  <defs>
    <style>
      .a {
        isolation: isolate;
      }

      .b {
        fill: #f2f3ff;
      }

      .c, .cp, .cq, .cr, .d, .e, .f, .g, .h, .j, .l, .o {
        mix-blend-mode: multiply;
      }

      .c {
        fill: url(#a);
      }

      .d {
        fill: url(#b);
      }

      .e {
        fill: url(#c);
      }

      .f {
        fill: url(#d);
      }

      .g {
        fill: url(#e);
      }

      .h {
        fill: url(#f);
      }

      .i {
        fill: #ffb2b2;
      }

      .j {
        fill: url(#g);
      }

      .k {
        fill: #616161;
      }

      .l {
        fill: url(#h);
      }

      .m {
        fill: url(#i);
      }

      .n {
        fill: url(#j);
      }

      .p {
        fill: url(#k);
      }

      .q {
        fill: #ff3158;
      }

      .r {
        fill: #010080;
      }

      .s {
        fill: #ff6b5e;
      }

      .t {
        fill: url(#l);
      }

      .u {
        fill: url(#m);
      }

      .v {
        fill: url(#n);
      }

      .w {
        fill: url(#o);
      }

      .x {
        fill: #4589ff;
      }

      .y {
        fill: #005dff;
      }

      .z {
        fill: url(#p);
      }

      .aa {
        fill: url(#q);
      }

      .ab {
        fill: url(#r);
      }

      .ac {
        fill: url(#s);
      }

      .ad {
        fill: url(#t);
      }

      .ae {
        fill: url(#u);
      }

      .af {
        fill: url(#v);
      }

      .ag {
        fill: #fffffe;
      }

      .ah {
        fill: url(#w);
      }

      .ai {
        fill: url(#x);
      }

      .aj {
        fill: url(#y);
      }

      .ak {
        fill: #ff7c41;
      }

      .al {
        fill: #c418fb;
      }

      .am {
        fill: url(#z);
      }

      .an {
        fill: #d13dff;
      }

      .ao {
        fill: url(#aa);
      }

      .ap {
        fill: url(#ab);
      }

      .aq {
        fill: url(#ac);
      }

      .ar {
        fill: url(#ad);
      }

      .as {
        fill: #fed866;
      }

      .at {
        fill: url(#ae);
      }

      .au {
        fill: #ffe494;
      }

      .av {
        fill: url(#af);
      }

      .aw {
        fill: url(#ag);
      }

      .ax {
        fill: url(#ah);
      }

      .ay {
        fill: url(#ai);
      }

      .az {
        fill: url(#aj);
      }

      .ba {
        fill: url(#ak);
      }

      .bb {
        fill: url(#al);
      }

      .bc {
        fill: url(#am);
      }

      .bd {
        fill: url(#an);
      }

      .be {
        fill: url(#ao);
      }

      .bf {
        fill: url(#ap);
      }

      .bg {
        fill: url(#aq);
      }

      .bh {
        fill: url(#ar);
      }

      .bi {
        fill: url(#as);
      }

      .bj {
        fill: url(#at);
      }

      .bk {
        fill: url(#au);
      }

      .bl {
        fill: url(#av);
      }

      .bm {
        fill: url(#aw);
      }

      .bn {
        fill: url(#ax);
      }

      .bo {
        fill: url(#ay);
      }

      .bp {
        fill: url(#az);
      }

      .bq {
        fill: url(#ba);
      }

      .br {
        fill: url(#bb);
      }

      .bs {
        fill: url(#bc);
      }

      .bt {
        fill: url(#bd);
      }

      .bu {
        fill: url(#be);
      }

      .bv {
        fill: url(#bf);
      }

      .bw {
        fill: #cac8d9;
      }

      .bx {
        fill: url(#bg);
      }

      .by {
        fill: url(#bh);
      }

      .bz {
        fill: url(#bi);
      }

      .ca {
        fill: #fff;
      }

      .cb {
        fill: #d3d3d3;
      }

      .cc {
        fill: url(#bj);
      }

      .cd {
        fill: url(#bk);
      }

      .ce {
        fill: url(#bl);
      }

      .cf {
        fill: url(#bm);
      }

      .cg {
        fill: url(#bn);
      }

      .ch {
        fill: url(#bo);
      }

      .ci {
        fill: url(#bp);
      }

      .cj {
        fill: url(#bq);
      }

      .ck {
        fill: url(#br);
      }

      .cl {
        fill: url(#bs);
      }

      .cm {
        fill: url(#bt);
      }

      .cn {
        fill: url(#bu);
      }

      .co {
        fill: url(#bv);
      }

      .cp {
        fill: url(#bw);
      }

      .cq {
        fill: url(#bx);
      }

      .cr {
        fill: url(#by);
      }

      .cs {
        fill: url(#bz);
      }

      .ct {
        fill: #f7a2a1;
      }

      .cu {
        fill: url(#ca);
      }

      .cv {
        fill: url(#cb);
      }

      .cw {
        fill: url(#cc);
      }

      .cx {
        fill: url(#cd);
      }

      .cy {
        fill: url(#ce);
      }

      .cz {
        fill: url(#cf);
      }

      .da {
        fill: url(#cg);
      }

      .db {
        fill: url(#ch);
      }

      .dc {
        fill: url(#ci);
      }

      .dd {
        fill: #fe4c58;
      }

      .de {
        fill: url(#cj);
      }

      .df {
        fill: url(#ck);
      }

      .dg {
        fill: #d7e3e3;
      }

      .dh {
        fill: #feffff;
      }

      .di {
        fill: url(#cl);
      }

      .dj {
        fill: url(#cm);
      }

      .dk {
        fill: url(#cn);
      }

      .dl {
        fill: url(#co);
      }

      .dm {
        fill: url(#cp);
      }

      .dn {
        fill: url(#cq);
      }

      .do {
        fill: url(#cr);
      }
    </style>
    <radialGradient id="a" data-name="Áåçûìÿííûé ãðàäèåíò 95" cx="245.18" cy="398.48" r="29.4" gradientUnits="userSpaceOnUse">
      <stop offset="0" stop-color="#cfd1e5"/>
      <stop offset="1" stop-color="#fff"/>
    </radialGradient>
    <linearGradient id="b" data-name="Áåçûìÿííûé ãðàäèåíò 11" x1="463.01" y1="337.17" x2="510.01" y2="337.17" gradientUnits="userSpaceOnUse">
      <stop offset="0.01" stop-color="#dfe0f1"/>
      <stop offset="0.57" stop-color="#f4f4fa"/>
      <stop offset="1" stop-color="#fff"/>
    </linearGradient>
    <linearGradient id="c" data-name="Áåçûìÿííûé ãðàäèåíò 96" x1="258.01" y1="312.67" x2="376.01" y2="312.67" gradientUnits="userSpaceOnUse">
      <stop offset="0" stop-color="#dfe0f1"/>
      <stop offset="1" stop-color="#fff"/>
    </linearGradient>
    <linearGradient id="d" x1="331.01" y1="304.67" x2="450.01" y2="304.67" xlink:href="#c"/>
    <linearGradient id="e" x1="377.33" y1="259.67" x2="477.01" y2="259.67" xlink:href="#c"/>
    <linearGradient id="f" x1="320.65" y1="274.65" x2="394.83" y2="274.65" xlink:href="#c"/>
    <linearGradient id="g" x1="431.01" y1="318.17" x2="505.01" y2="318.17" xlink:href="#c"/>
    <linearGradient id="h" x1="157.88" y1="362.67" x2="314.75" y2="362.67" xlink:href="#c"/>
    <linearGradient id="i" data-name="Áåçûìÿííûé ãðàäèåíò 78" x1="251.89" y1="204.46" x2="283.53" y2="204.46" gradientUnits="userSpaceOnUse">
      <stop offset="0" stop-color="#09008f"/>
      <stop offset="0.13" stop-color="#0713a6"/>
      <stop offset="0.39" stop-color="#0433cc"/>
      <stop offset="0.63" stop-color="#024ae8"/>
      <stop offset="0.84" stop-color="#0058f9"/>
      <stop offset="1" stop-color="#005dff"/>
    </linearGradient>
    <linearGradient id="j" data-name="Áåçûìÿííûé ãðàäèåíò 79" x1="237.07" y1="199" x2="259.14" y2="199" gradientUnits="userSpaceOnUse">
      <stop offset="0" stop-color="#09008f"/>
      <stop offset="0.15" stop-color="#080797"/>
      <stop offset="0.39" stop-color="#0718ac"/>
      <stop offset="0.68" stop-color="#0436d0"/>
      <stop offset="1" stop-color="#005dff"/>
    </linearGradient>
    <linearGradient id="k" data-name="Áåçûìÿííûé ãðàäèåíò 98" x1="330.67" y1="390.42" x2="521.61" y2="390.42" gradientUnits="userSpaceOnUse">
      <stop offset="0" stop-color="#fff"/>
      <stop offset="0.43" stop-color="#f4f4fa"/>
      <stop offset="0.99" stop-color="#dfe0f1"/>
      <stop offset="1" stop-color="#dfe0f1"/>
    </linearGradient>
    <linearGradient id="l" data-name="Áåçûìÿííûé ãðàäèåíò 102" x1="364.52" y1="163.23" x2="382.85" y2="163.23" gradientUnits="userSpaceOnUse">
      <stop offset="0" stop-color="#ff655e"/>
      <stop offset="0.08" stop-color="#ff785f"/>
      <stop offset="0.26" stop-color="#ff9b62"/>
      <stop offset="0.44" stop-color="#feb764"/>
      <stop offset="0.63" stop-color="#feca65"/>
      <stop offset="0.81" stop-color="#fed666"/>
      <stop offset="1" stop-color="#feda66"/>
    </linearGradient>
    <linearGradient id="m" data-name="Áåçûìÿííûé ãðàäèåíò 138" x1="347" y1="177.3" x2="371.84" y2="177.3" gradientUnits="userSpaceOnUse">
      <stop offset="0" stop-color="#feda66"/>
      <stop offset="0.19" stop-color="#fed666"/>
      <stop offset="0.37" stop-color="#feca65"/>
      <stop offset="0.56" stop-color="#feb764"/>
      <stop offset="0.74" stop-color="#ff9b62"/>
      <stop offset="0.92" stop-color="#ff785f"/>
      <stop offset="1" stop-color="#ff655e"/>
    </linearGradient>
    <linearGradient id="n" data-name="Áåçûìÿííûé ãðàäèåíò 133" x1="388.67" y1="129.69" x2="394.18" y2="129.69" gradientUnits="userSpaceOnUse">
      <stop offset="0" stop-color="#09008f"/>
      <stop offset="0.26" stop-color="#061fb5"/>
      <stop offset="0.59" stop-color="#0341dd"/>
      <stop offset="0.84" stop-color="#0155f6"/>
      <stop offset="1" stop-color="#005dff"/>
    </linearGradient>
    <linearGradient id="o" data-name="Áåçûìÿííûé ãðàäèåíò 147" x1="372.54" y1="226.31" x2="408.31" y2="226.31" gradientUnits="userSpaceOnUse">
      <stop offset="0" stop-color="#cb19ff"/>
      <stop offset="1" stop-color="#09008f"/>
    </linearGradient>
    <linearGradient id="p" x1="361.01" y1="210.41" x2="405.01" y2="210.41" xlink:href="#n"/>
    <linearGradient id="q" data-name="Áåçûìÿííûé ãðàäèåíò 137" x1="358.01" y1="195.54" x2="372.01" y2="195.54" gradientUnits="userSpaceOnUse">
      <stop offset="0" stop-color="#005dff"/>
      <stop offset="0.16" stop-color="#0155f6"/>
      <stop offset="0.41" stop-color="#0341dd"/>
      <stop offset="0.74" stop-color="#061fb5"/>
      <stop offset="1" stop-color="#09008f"/>
    </linearGradient>
    <linearGradient id="r" x1="341.01" y1="185.66" x2="356.01" y2="185.66" xlink:href="#q"/>
    <linearGradient id="s" x1="379.01" y1="182.53" x2="394.01" y2="182.53" xlink:href="#q"/>
    <linearGradient id="t" x1="363.01" y1="172.66" x2="377.01" y2="172.66" xlink:href="#q"/>
    <linearGradient id="u" x1="392.38" y1="165.54" x2="406.52" y2="165.54" xlink:href="#m"/>
    <linearGradient id="v" data-name="Áåçûìÿííûé ãðàäèåíò 179" x1="392.08" y1="185.66" x2="406.57" y2="185.66" gradientUnits="userSpaceOnUse">
      <stop offset="0" stop-color="#feda66"/>
      <stop offset="0.19" stop-color="#feca65"/>
      <stop offset="0.55" stop-color="#fea162"/>
      <stop offset="1" stop-color="#ff655e"/>
    </linearGradient>
    <linearGradient id="w" data-name="Áåçûìÿííûé ãðàäèåíò 182" x1="434.62" y1="279.46" x2="454.85" y2="279.46" gradientUnits="userSpaceOnUse">
      <stop offset="0" stop-color="#cb19ff"/>
      <stop offset="0.14" stop-color="#aa15ec"/>
      <stop offset="0.44" stop-color="#660cc4"/>
      <stop offset="0.7" stop-color="#3305a8"/>
      <stop offset="0.89" stop-color="#150196"/>
      <stop offset="1" stop-color="#09008f"/>
    </linearGradient>
    <linearGradient id="x" x1="453.16" y1="296.46" x2="468.15" y2="296.46" xlink:href="#w"/>
    <linearGradient id="y" data-name="Áåçûìÿííûé ãðàäèåíò 110" x1="436.37" y1="240.79" x2="471.01" y2="240.79" gradientUnits="userSpaceOnUse">
      <stop offset="0" stop-color="#ffca71"/>
      <stop offset="1" stop-color="#ff655e"/>
    </linearGradient>
    <linearGradient id="z" data-name="Áåçûìÿííûé ãðàäèåíò 143" x1="409.23" y1="340.67" x2="453.47" y2="340.67" gradientUnits="userSpaceOnUse">
      <stop offset="0" stop-color="#09008f"/>
      <stop offset="1" stop-color="#cb19ff"/>
    </linearGradient>
    <linearGradient id="aa" x1="405.69" y1="325.63" x2="420.44" y2="325.63" xlink:href="#o"/>
    <linearGradient id="ab" x1="389.48" y1="315.93" x2="404.23" y2="315.93" xlink:href="#o"/>
    <linearGradient id="ac" x1="427" y1="312.53" x2="441.75" y2="312.53" xlink:href="#o"/>
    <linearGradient id="ad" x1="410.79" y1="302.84" x2="425.54" y2="302.84" xlink:href="#o"/>
    <linearGradient id="ae" data-name="Áåçûìÿííûé ãðàäèåíò 177" x1="416.01" y1="282.17" x2="461.01" y2="282.17" gradientUnits="userSpaceOnUse">
      <stop offset="0" stop-color="#ff655e"/>
      <stop offset="0.45" stop-color="#fea162"/>
      <stop offset="0.81" stop-color="#feca65"/>
      <stop offset="1" stop-color="#feda66"/>
    </linearGradient>
    <linearGradient id="af" x1="413.01" y1="266.85" x2="428.01" y2="266.85" xlink:href="#v"/>
    <linearGradient id="ag" x1="434.01" y1="253.84" x2="449.01" y2="253.84" xlink:href="#v"/>
    <linearGradient id="ah" x1="418.01" y1="243.97" x2="433.01" y2="243.97" xlink:href="#v"/>
    <linearGradient id="ai" x1="397.01" y1="256.98" x2="411.01" y2="256.98" xlink:href="#v"/>
    <linearGradient id="aj" x1="194.46" y1="183.77" x2="209.1" y2="183.77" xlink:href="#ae"/>
    <linearGradient id="ak" x1="230.95" y1="193.71" x2="241.69" y2="193.71" xlink:href="#ae"/>
    <linearGradient id="al" x1="214.55" y1="217.78" x2="259.4" y2="217.78" xlink:href="#z"/>
    <linearGradient id="am" x1="207.33" y1="206.92" x2="222.97" y2="206.92" xlink:href="#o"/>
    <linearGradient id="an" x1="189.25" y1="201.44" x2="204.9" y2="201.44" xlink:href="#o"/>
    <linearGradient id="ao" x1="224.84" y1="189.06" x2="240.48" y2="189.06" xlink:href="#o"/>
    <linearGradient id="ap" x1="206.76" y1="183.58" x2="222.4" y2="183.58" xlink:href="#o"/>
    <linearGradient id="aq" x1="209.97" y1="186.64" x2="235.37" y2="186.64" xlink:href="#ae"/>
    <linearGradient id="ar" x1="232.81" y1="217.57" x2="243.55" y2="217.57" xlink:href="#ae"/>
    <linearGradient id="as" x1="193.93" y1="193.07" x2="210.51" y2="193.07" xlink:href="#ae"/>
    <linearGradient id="at" x1="193.9" y1="231.08" x2="205.06" y2="231.08" xlink:href="#ae"/>
    <linearGradient id="au" x1="210.9" y1="174.07" x2="233.26" y2="174.07" xlink:href="#ae"/>
    <linearGradient id="av" x1="203.48" y1="169.81" x2="214.94" y2="169.81" xlink:href="#w"/>
    <radialGradient id="aw" data-name="Áåçûìÿííûé ãðàäèåíò 178" cx="207.23" cy="164.65" r="2.09" xlink:href="#w"/>
    <linearGradient id="ax" data-name="Áåçûìÿííûé ãðàäèåíò 155" x1="192.69" y1="136.78" x2="209.1" y2="136.78" gradientUnits="userSpaceOnUse">
      <stop offset="0" stop-color="#fff"/>
      <stop offset="0.5" stop-color="#f1f0f5"/>
      <stop offset="1" stop-color="#dedce9"/>
    </linearGradient>
    <linearGradient id="ay" x1="191" y1="145.72" x2="197.04" y2="145.72" xlink:href="#w"/>
    <linearGradient id="az" x1="195.92" y1="137.91" x2="221.17" y2="137.91" xlink:href="#w"/>
    <linearGradient id="ba" x1="154.96" y1="131.82" x2="161" y2="131.82" xlink:href="#w"/>
    <linearGradient id="bb" x1="159.87" y1="124.02" x2="185.13" y2="124.02" xlink:href="#w"/>
    <linearGradient id="bc" x1="170.61" y1="148.5" x2="174.77" y2="148.5" xlink:href="#w"/>
    <linearGradient id="bd" x1="160.46" y1="147.37" x2="167.5" y2="147.37" xlink:href="#w"/>
    <linearGradient id="be" x1="103.22" y1="118.4" x2="274.9" y2="118.4" xlink:href="#w"/>
    <radialGradient id="bf" data-name="Áåçûìÿííûé ãðàäèåíò 178" cx="187.88" cy="124.27" r="19.2" xlink:href="#w"/>
    <linearGradient id="bg" x1="180.29" y1="177.86" x2="194.07" y2="177.86" xlink:href="#w"/>
    <linearGradient id="bh" x1="163.03" y1="170.18" x2="208.7" y2="170.18" xlink:href="#ae"/>
    <radialGradient id="bi" data-name="Áåçûìÿííûé ãðàäèåíò 178" cx="186.19" cy="170.27" r="2.78" xlink:href="#w"/>
    <linearGradient id="bj" x1="152.66" y1="168.43" x2="159.95" y2="168.43" xlink:href="#v"/>
    <linearGradient id="bk" x1="264.29" y1="114.86" x2="278.07" y2="114.86" xlink:href="#w"/>
    <linearGradient id="bl" x1="247.03" y1="107.18" x2="292.7" y2="107.18" xlink:href="#ae"/>
    <radialGradient id="bm" data-name="Áåçûìÿííûé ãðàäèåíò 178" cx="270.19" cy="107.27" r="2.78" xlink:href="#w"/>
    <linearGradient id="bn" x1="236.66" y1="105.43" x2="243.95" y2="105.43" xlink:href="#v"/>
    <linearGradient id="bo" x1="185.29" y1="62.86" x2="199.07" y2="62.86" xlink:href="#w"/>
    <linearGradient id="bp" x1="168.03" y1="55.18" x2="213.7" y2="55.18" xlink:href="#ae"/>
    <radialGradient id="bq" data-name="Áåçûìÿííûé ãðàäèåíò 178" cx="191.19" cy="55.27" r="2.78" xlink:href="#w"/>
    <linearGradient id="br" x1="157.66" y1="53.43" x2="164.95" y2="53.43" xlink:href="#v"/>
    <linearGradient id="bs" x1="99.29" y1="120.86" x2="113.07" y2="120.86" xlink:href="#w"/>
    <linearGradient id="bt" x1="82.03" y1="113.18" x2="127.7" y2="113.18" xlink:href="#ae"/>
    <radialGradient id="bu" data-name="Áåçûìÿííûé ãðàäèåíò 178" cx="105.19" cy="113.27" r="2.78" xlink:href="#w"/>
    <linearGradient id="bv" x1="71.66" y1="111.43" x2="78.95" y2="111.43" xlink:href="#v"/>
    <linearGradient id="bw" x1="273.73" y1="383.17" x2="425.82" y2="383.17" xlink:href="#c"/>
    <linearGradient id="bx" x1="518.39" y1="345.98" x2="519.01" y2="345.98" xlink:href="#c"/>
    <linearGradient id="by" x1="408.91" y1="358.67" x2="513.39" y2="358.67" xlink:href="#c"/>
    <linearGradient id="bz" data-name="Áåçûìÿííûé ãðàäèåíò 183" x1="236.2" y1="341.07" x2="265.32" y2="341.07" gradientUnits="userSpaceOnUse">
      <stop offset="0" stop-color="#ffca71"/>
      <stop offset="0.84" stop-color="#ff655e"/>
      <stop offset="1" stop-color="#ff655e"/>
    </linearGradient>
    <linearGradient id="ca" x1="211.18" y1="365.35" x2="262.28" y2="365.35" xlink:href="#w"/>
    <linearGradient id="cb" x1="221.63" y1="365.42" x2="248.16" y2="365.42" xlink:href="#bz"/>
    <linearGradient id="cc" x1="274.01" y1="365.56" x2="318.01" y2="365.56" xlink:href="#n"/>
    <linearGradient id="cd" x1="271.01" y1="350.61" x2="285.01" y2="350.61" xlink:href="#q"/>
    <linearGradient id="ce" x1="254.01" y1="340.74" x2="269.01" y2="340.74" xlink:href="#q"/>
    <linearGradient id="cf" x1="292.01" y1="337.6" x2="307.01" y2="337.6" xlink:href="#q"/>
    <linearGradient id="cg" x1="276.01" y1="327.73" x2="290.01" y2="327.73" xlink:href="#q"/>
    <linearGradient id="ch" data-name="Áåçûìÿííûé ãðàäèåíò 185" x1="227.23" y1="348.98" x2="252.96" y2="348.98" gradientUnits="userSpaceOnUse">
      <stop offset="0" stop-color="#ff655e"/>
      <stop offset="1" stop-color="#ffca71"/>
    </linearGradient>
    <linearGradient id="ci" x1="245.46" y1="357.32" x2="271.17" y2="357.32" xlink:href="#ch"/>
    <linearGradient id="cj" x1="278.6" y1="268.61" x2="331.82" y2="268.61" xlink:href="#ae"/>
    <linearGradient id="ck" x1="261.55" y1="273.17" x2="288.21" y2="273.17" xlink:href="#ae"/>
    <linearGradient id="cl" data-name="Áåçûìÿííûé ãðàäèåíò 186" x1="269.59" y1="213.71" x2="297.77" y2="213.71" gradientUnits="userSpaceOnUse">
      <stop offset="0" stop-color="#09008f"/>
      <stop offset="0.04" stop-color="#080b9d"/>
      <stop offset="0.13" stop-color="#0524bb"/>
      <stop offset="0.24" stop-color="#0339d4"/>
      <stop offset="0.36" stop-color="#0249e7"/>
      <stop offset="0.5" stop-color="#0154f5"/>
      <stop offset="0.68" stop-color="#005bfd"/>
      <stop offset="1" stop-color="#005dff"/>
    </linearGradient>
    <linearGradient id="cm" data-name="Áåçûìÿííûé ãðàäèåíò 187" x1="251.43" y1="218.79" x2="277.11" y2="218.79" gradientUnits="userSpaceOnUse">
      <stop offset="0" stop-color="#005dff"/>
      <stop offset="0.32" stop-color="#005bfd"/>
      <stop offset="0.5" stop-color="#0154f5"/>
      <stop offset="0.64" stop-color="#0249e7"/>
      <stop offset="0.76" stop-color="#0339d4"/>
      <stop offset="0.87" stop-color="#0524bb"/>
      <stop offset="0.96" stop-color="#080b9d"/>
      <stop offset="1" stop-color="#09008f"/>
    </linearGradient>
    <linearGradient id="cn" x1="158.01" y1="345.16" x2="203.01" y2="345.16" xlink:href="#ae"/>
    <linearGradient id="co" x1="155.01" y1="329.85" x2="170.01" y2="329.85" xlink:href="#v"/>
    <linearGradient id="cp" x1="176.01" y1="316.84" x2="191.01" y2="316.84" xlink:href="#v"/>
    <linearGradient id="cq" x1="160.01" y1="306.97" x2="175.01" y2="306.97" xlink:href="#v"/>
    <linearGradient id="cr" x1="139.01" y1="319.98" x2="153.01" y2="319.98" xlink:href="#v"/>
  </defs>
  <title>collab</title>
  <g class="a">
    <g>
      <path class="b" d="M330.5,105c-51.59,21.9-149.17,27.13-116.25-51.38,5.19-12.38.18-35.15-17.78-53.65H0S13,57.72,96.77,57.72c64,0-23.41,63.46,6.89,96.14,36,38.84,72.26,93.9-19.86,178.33-117.8,108,247.34,145.3,350.62,61.27,27.34-22.24,60-34,78.77,3.34V205.46S486.45,38.83,330.5,105Z"/>
      <path class="c" d="M245.17,384.86c-20.44,0-37.25,5.37-39.28,12.24a4.93,4.93,0,0,0-.21,1.39c0,7.53,17.68,13.62,39.48,13.62s39.5-6.1,39.5-13.62a5,5,0,0,0-.21-1.39C282.44,390.22,265.6,384.86,245.17,384.86Z"/>
      <rect class="d" x="463.01" y="334.17" width="47" height="6"/>
      <rect class="e" x="258.01" y="311.17" width="118" height="3"/>
      <path class="f" d="M331,304.67v0c0,.94,1.18,1.46,2.13,1.46H450v-3H333.14C332.2,303.17,331,303.73,331,304.67Z"/>
      <polygon class="g" points="377.33 263.17 477.01 263.17 477.01 256.17 383.63 256.17 377.33 263.17"/>
      <polygon class="h" points="320.65 279.1 350.61 296.35 394.83 270.2 394.83 270.2 364.87 252.95 320.65 279.1"/>
      <path class="i" d="M396.7,270.45s-.09,1.08-.23,1.88c.12.19.6-.08,1.35,0,.94.13,1.86.61,2.18.31a3,3,0,0,0,.43-.74c0-.77,0-1.3,0-1.3Z"/>
      <rect class="j" x="431.01" y="315.17" width="74" height="6"/>
      <path class="k" d="M196.21,167.17h0Z"/>
      <polygon class="l" points="157.88 376.17 270.36 376.17 314.75 349.17 202.26 349.17 157.88 376.17"/>
      <g>
        <path class="i" d="M239.21,188c-.3,0-.4,1.38-.27,1.65.52.56.84.25,1.26.84a6.47,6.47,0,0,1-.56-1.85C239.6,188.28,239.67,187.89,239.21,188Z"/>
        <path class="i" d="M240.75,190.7l-.07-.1a15.91,15.91,0,0,0-1.43-1.74c-.61-.66-2.14-2-2.25-2.08a11.28,11.28,0,0,0-1.36-1.11,3.91,3.91,0,0,0-1,.08,1,1,0,0,0-.2.54c-.41.16.17,1.1.06,1.11-.45.06-.59.53.29,2.08.56,1,2.55,2.32,3.43,3.24a7.34,7.34,0,0,1,3-1.29c-.07-.12-.14-.24-.21-.35S240.83,190.82,240.75,190.7Z"/>
        <path class="m" d="M280.36,199.88h-.44c-2.41,0-6,.33-9.74.66a119.25,119.25,0,0,1-12.48.65c-8.67-.24-5.74,5.9-3.14,6.82,6.86,2.42,26.87.39,28.49-3S281.8,199.9,280.36,199.88Z"/>
        <path class="n" d="M258,202.65c-3.71-3.14-12.73-8.5-18.13-13.06a17.72,17.72,0,0,1-2.8,3.17c5.63,6.28,16.76,17,19.8,15.54C260.29,206.66,259.11,203.58,258,202.65Z"/>
      </g>
      <g class="o">
        <rect class="p" x="368.23" y="390.01" width="1.1" height="0.83"/>
      </g>
      <g>
        <path class="q" d="M405.18,133.87c0-13.32-12.4-9.13-13.18-5.68.13.85.78,1.19,1.71,1.86,1.85-.93,4.5-1,4.17,4.73-.13,2.23-2.79,3.63.29,8.12,3.67,5.35.79,6.52.79,6.52,4.16.67,11.84-4,6.61-10.59C404.52,137.49,405.18,137.88,405.18,133.87Z"/>
        <path class="r" d="M400.42,270.62l-3.71-.17a23.31,23.31,0,0,1-.33,2.42c-.3,1.32-1,3.36-1.14,4-.26,1.1.39,1.67,1.49,1.93s3.19-1,3.49-2.18c.2-.81,1.17-3.8.22-4.71Z"/>
        <path class="r" d="M377.16,257.19l-3.18-.93s-.65.8-1.19,1.32c-1,1-5.35,2.53-5.35,3.95,0,.72,1.77,1.36,3.22,1.41a4.4,4.4,0,0,0,3.12-1.21c.64-.56,2.9-.91,3.22-1.35a1.71,1.71,0,0,0,.12-1.66A4.84,4.84,0,0,0,377.16,257.19Z"/>
        <path class="i" d="M372.79,257.59a4.72,4.72,0,0,0,1.77,1.39,6,6,0,0,0,2.55-.26c.16-.79.23-1.33.23-1.33l-3.46-1.28A6.08,6.08,0,0,1,372.79,257.59Z"/>
        <path class="i" d="M391.4,220.3c.08.94,5.38,50.11,5.38,50.11a5.55,5.55,0,0,0,3.66.66s.87-50.13.72-52.28C399.93,219.73,392.18,221.06,391.4,220.3Z"/>
        <path class="i" d="M373.56,206.36c0,.94.16,50.39.16,50.39a5.55,5.55,0,0,0,3.57,1s6.06-49.77,6.13-51.93C382.1,206.68,374.25,207.19,373.56,206.36Z"/>
        <path class="s" d="M400.39,156.92c-1.38-4.81-2.87-7.24-6-8.47a19.41,19.41,0,0,0-7.84-1.2,16.7,16.7,0,0,0-6.29,1.11c-4.83,1.94-4.88,6-5.29,8.5s.85,11.6.71,17.25c4.33,1.58,19.94,2.18,23.68.65C399.21,167.68,400.75,158.13,400.39,156.92Z"/>
        <path class="i" d="M390.74,142.21c-.44.22-5,1.88-6.18,1.66,0,.27.56,3.2-.39,4.71.21,1.46,5.12,1.7,6.74-.66C390.4,147.18,390.38,143.52,390.74,142.21Z"/>
        <path class="i" d="M386.88,132.34c-2.9-.41-5.78.06-6.62,2.77-.3,1-.52,9.91,4.13,11.6,2,.72,6.08-2.44,6.41-4.77l.45-3.21C391.68,135.64,390,132.78,386.88,132.34Z"/>
        <path class="i" d="M399.36,174.77c-2.69.49-18.84,1.54-23.7-1.35,0,0-.12,3.35-.2,5.13,0,.6-.84,2.24-1.21,3.88,4.71,3.7,22.81,3.62,26.41,2-.25-1.72-1.3-3.28-1.3-4.7C399.36,178.51,399.36,175.74,399.36,174.77Z"/>
        <path class="q" d="M382.49,129.54c-4.63.61-4.3,8.06-2.27,9.33-.64-5.62,2.41-6.26,2.41-6.26,6.2.4,9.37,8.24,7.86,10.29,0,0,7.36-6.35,1.91-12.78C388.76,125.84,382.49,129.54,382.49,129.54Z"/>
        <path class="i" d="M390.55,136.71a2.84,2.84,0,0,0-1.46.26c.87,1.45,1.69,3.29,1,4.83.83-.12,1.8-2.06,1.9-2.87A2.13,2.13,0,0,0,390.55,136.71Z"/>
        <g>
          <path class="i" d="M345.29,179.46c-.12.28,1,1.06,1.27,1.09.75-.16.65-.59,1.37-.64a6.44,6.44,0,0,1-1.88-.48C345.74,179.27,345.44,179,345.29,179.46Z"/>
          <path class="i" d="M348.6,179.86h-.12a16,16,0,0,0-2.23.32c-.88.18-2.81.8-2.95.84a11.32,11.32,0,0,0-1.65.59,3.86,3.86,0,0,0-.46.91,1,1,0,0,0,.36.45c-.08.43,1,.42,1,.52-.18.41.34.78,1.84.26.09,0,3.39-.41,4.64-.69a6.68,6.68,0,0,1,.22-2.53,6.8,6.8,0,0,1,.22-.7h-.85Z"/>
          <path class="t" d="M379.6,148.93a3.56,3.56,0,0,0-2.82,1.5c-2.64,4.18-6.81,14.11-10.64,20.06-4.7,7.3,2.07,8,4.2,6.22,5.62-4.61,14.26-22.77,12.18-25.93A3.51,3.51,0,0,0,379.6,148.93Z"/>
          <path class="u" d="M368.48,170.85a3,3,0,0,0-.91.13c-4.61,1.55-13.87,6.48-20.57,8.73a17.73,17.73,0,0,1,1.25,4c8.29-1.56,23.22-5.52,23.56-8.88C372.11,171.8,370,170.85,368.48,170.85Z"/>
        </g>
        <path class="v" d="M392.42,127.78a2.71,2.71,0,0,0-1.59-.53,3.51,3.51,0,0,0-2.16.87,14.42,14.42,0,0,1,5,4C394.45,130.77,394.51,129.25,392.42,127.78Z"/>
        <path class="w" d="M402.53,197.9c-.29-4.67-1-7.28-1.9-13.47-3.67,1.61-21.65,1.66-26.38-2a173.83,173.83,0,0,0-1.71,17.87c0,30,.58,54.81.61,54.81,1.52,2.79,5.89,1.07,6,.95s3.67-31.36,6.08-52.18a8.06,8.06,0,0,0,3.24.68c2,18,7.43,65,7.43,65,2,1.35,6,0,6-.11s1-68.56.73-71.65Z"/>
      </g>
      <g>
        <g>
          <polygon class="x" points="331.12 189.13 361.08 206.38 405.3 180.23 375.34 162.98 331.12 189.13"/>
          <polygon class="y" points="331.12 223.31 361.08 240.6 361.08 206.38 331.12 189.13 331.12 223.31"/>
          <polygon class="z" points="361.01 240.6 405.01 214.46 405.01 180.23 361.01 206.38 361.01 240.6"/>
          <path class="aa" d="M358,195.78c0,2.28,2.72,4.13,7,4.13s7-1.85,7-4.13v-4.61H358Z"/>
          <path class="ab" d="M341,186.23c0,2.17,3.43,3.93,7.5,3.93s7.5-1.76,7.5-3.93v-5.07H341Z"/>
          <path class="ac" d="M379,183c0,2.17,3.43,3.93,7.5,3.93s7.5-1.76,7.5-3.93v-4.8H379Z"/>
          <path class="ad" d="M363,173.21c0,2.17,2.93,3.93,7,3.93s7-1.76,7-3.93v-5H363Z"/>
          <ellipse class="y" cx="370.01" cy="167.95" rx="7" ry="3.73"/>
          <ellipse class="y" cx="364.96" cy="190.72" rx="7.05" ry="3.76"/>
          <ellipse class="y" cx="386.48" cy="177.7" rx="7.53" ry="4.02"/>
          <ellipse class="y" cx="348.51" cy="180.97" rx="7.37" ry="3.93"/>
        </g>
        <path class="i" d="M390.7,197c.11.29,1.44.06,1.67-.13.42-.64,0-.88.52-1.42a6.48,6.48,0,0,1-1.67,1C390.88,196.51,390.49,196.54,390.7,197Z"/>
        <path class="i" d="M394.25,194.95a6.9,6.9,0,0,1-.34-.66l-.29.29-.31.32-.08.09a15.77,15.77,0,0,0-1.35,1.8c-.5.75-1.42,2.55-1.49,2.68a11.15,11.15,0,0,0-.75,1.59,3.88,3.88,0,0,0,.32,1,1,1,0,0,0,.58.06c.25.36,1-.43,1.07-.33.17.42.79.31,1.48-1.12,0-.09,2.11-2.69,2.79-3.76A6.72,6.72,0,0,1,394.25,194.95Z"/>
        <path class="ae" d="M396.74,150.34a5.38,5.38,0,0,0-1.07-.12,3.27,3.27,0,0,0-3.24,3.93c1.09,4.82,5.17,14.79,6.67,21.71,1.84,8.48,7.1,4.17,7.37,1.42C407.19,170.06,400.45,151.1,396.74,150.34Z"/>
        <path class="af" d="M403.4,173.41a3.52,3.52,0,0,0-2.95,1.79c-2.17,4.36-5.22,14.39-8.37,20.72a17.74,17.74,0,0,1,3.74,2c4.76-7,12.51-20.33,10.38-22.93A3.63,3.63,0,0,0,403.4,173.41Z"/>
      </g>
      <path class="i" d="M416,246.4c-.08.3,1.13.89,1.43.86.71-.28.54-.69,1.25-.85a6.47,6.47,0,0,1-1.93-.17C416.38,246.14,416,245.93,416,246.4Z"/>
      <g>
        <path class="i" d="M420,246.83a6.67,6.67,0,0,1,.11-.73l-.41.07-.44.08-.12,0A15.94,15.94,0,0,0,417,247c-.84.32-2.64,1.24-2.77,1.31a11.28,11.28,0,0,0-1.54.86,3.84,3.84,0,0,0-.31,1,1,1,0,0,0,.43.38c0,.44,1.08.25,1.06.36-.11.44.46.72,1.85,0,.08,0,3.28-1,4.46-1.43A6.7,6.7,0,0,1,420,246.83Z"/>
        <path class="ag" d="M436.55,234.39c-4.3,2.28-12.62,8.66-18.87,12a17.79,17.79,0,0,1,1.9,3.78c7.93-2.9,22-9.24,21.79-12.6C441.13,233.76,437.83,233.72,436.55,234.39Z"/>
        <g>
          <path class="r" d="M466.3,331.89l-3.71-.17a23.64,23.64,0,0,1-.33,2.42c-.3,1.32-1,3.36-1.14,4-.26,1.1.39,1.67,1.49,1.93s3.19-1,3.49-2.18c.2-.81,1.17-3.8.22-4.72Z"/>
          <path class="i" d="M462.59,331.71s-.09,1.08-.23,1.88c.12.19.6-.08,1.35,0,.94.14,1.86.61,2.18.31a3,3,0,0,0,.43-.74c0-.77,0-1.3,0-1.3Z"/>
          <path class="r" d="M435.18,315s-.65.81-1.19,1.32c-1,1-5.35,2.53-5.35,3.95,0,.72,1.77,1.36,3.22,1.41a4.41,4.41,0,0,0,3.12-1.21c.64-.56,2.9-.91,3.22-1.35a1.71,1.71,0,0,0,.12-1.66l.31-1.56Z"/>
          <path class="i" d="M434,316.33a4.73,4.73,0,0,0,1.77,1.4,6,6,0,0,0,2.55-.26l.31-1.56-3.55-1A6.08,6.08,0,0,1,434,316.33Z"/>
          <path class="ah" d="M440.27,242.56c-.14,1.34-5.65,71.93-5.65,71.93,1.27,2.92,5.77,1.59,5.84,1.48s14-66.12,14.38-69.19h0C452.88,247.58,441.14,243.95,440.27,242.56Z"/>
          <path class="ai" d="M453.16,260.51c.12,1.34,8.17,71.53,8.17,71.53,2,1.35,6,0,6-.11s1-68.56.73-71.65C466.35,261.65,454.27,261.6,453.16,260.51Z"/>
          <path class="ag" d="M442.29,212.61c-1.93,4.55-4.41,15-7.22,21.53-3.44,8,3.34,7.52,5.16,5.45C445,234.13,450.59,214.8,448,212S442.85,211.29,442.29,212.61Z"/>
          <path class="aj" d="M461.25,209.56a19.53,19.53,0,0,0-6.68-1.39h0a3.25,3.25,0,0,0-1,.19,16.62,16.62,0,0,0-6.29,1.19c-4.83,1.94-5.77,6-6.19,8.54-1.15,7-4.69,43.2-4.69,43.2a6.56,6.56,0,0,0,9.17-3.8l2.08-5.65.45,2.51c1.41,8,6.85,14.5,14.39,16.65,5.59,1.59,8.55,2.41,8.55,2.41v0c0-20.65-2.2-52.55-3-55.21C466.66,213.38,464.4,210.79,461.25,209.56Z"/>
          <path class="ag" d="M453.54,208.52a16.72,16.72,0,0,0-6.29,1.11,1.66,1.66,0,0,0-.41,1c0,1.79,3.33,3.24,7.44,3.24s7.44-1.45,7.44-3.24a1.6,1.6,0,0,0-.34-1A19.41,19.41,0,0,0,453.54,208.52Z"/>
          <path class="i" d="M451.57,205.13c0,.27.56,3.2-.39,4.7.21,1.46,4.84,2.27,6.45-.09-.51-.73-.48-4.68.28-6.42C457.48,203.54,452.79,205.35,451.57,205.13Z"/>
          <path class="i" d="M453.88,193.6c-2.9-.41-5.78.06-6.62,2.77-.3,1-.52,9.91,4.13,11.6,2,.71,6.08-2.44,6.41-4.77l.45-3.21C458.69,196.91,457,194,453.88,193.6Z"/>
          <path class="ak" d="M443.47,193.07c-.23,1.32.6,4.71,13.41,3.7,1.81,2.82.58,7.64.58,7.64,4.14-2.79,6.39-10.44,2.6-14.89C455.12,183.7,444.5,187.09,443.47,193.07Z"/>
        </g>
      </g>
      <path class="i" d="M457.67,198.07a1.9,1.9,0,0,0-.84.07,5.49,5.49,0,0,1,.27,4.92c.83-.12,1.8-2.06,1.9-2.87S458.53,198.17,457.67,198.07Z"/>
      <g>
        <polygon class="al" points="379.2 319.56 379.32 353.75 409.34 370.94 409.23 336.71 379.2 319.56"/>
        <polygon class="am" points="409.23 336.71 409.34 370.94 453.47 344.64 453.35 310.41 409.23 336.71"/>
        <polygon class="an" points="379.2 319.56 409.23 336.71 453.35 310.41 423.33 293.26 379.2 319.56"/>
        <path class="ao" d="M405.69,321.07l0,5.26c0,2.17,3.31,3.92,7.38,3.91s7.36-1.79,7.35-4l0-5.26Z"/>
        <path class="ap" d="M389.48,311.37l0,5.26c0,2.17,3.31,3.92,7.38,3.91s7.36-1.79,7.36-4l0-5.26Z"/>
        <path class="aq" d="M427,308l0,5.26c0,2.17,3.31,3.92,7.38,3.91s7.36-1.79,7.35-4l0-5.26Z"/>
        <path class="ar" d="M410.79,298.28l0,5.26c0,2.17,3.31,3.92,7.38,3.91s7.36-1.79,7.36-4l0-5.26Z"/>
        <ellipse class="al" cx="413.05" cy="321.04" rx="7.37" ry="3.93" transform="translate(-1.08 1.39) rotate(-0.19)"/>
        <ellipse class="al" cx="396.84" cy="311.35" rx="7.37" ry="3.93" transform="translate(-1.04 1.33) rotate(-0.19)"/>
        <ellipse class="al" cx="434.36" cy="307.95" rx="7.37" ry="3.93" transform="translate(-1.03 1.46) rotate(-0.19)"/>
        <ellipse class="al" cx="418.15" cy="298.25" rx="7.37" ry="3.93" transform="translate(-1 1.41) rotate(-0.19)"/>
      </g>
      <g>
        <polygon class="as" points="386.39 294.94 416.35 312.22 416.35 278 386.39 260.75 386.39 294.94"/>
        <polygon class="at" points="416.26 312.08 460.14 286.59 460.14 252.26 416.26 277.85 416.26 312.08"/>
        <polygon class="au" points="386.39 260.8 416.35 278.05 460.57 251.9 430.61 234.65 386.39 260.8"/>
        <path class="av" d="M413,267.61c0,2.17,3.43,3.93,7.5,3.93s7.5-1.76,7.5-3.93v-5.44H413Z"/>
        <path class="aw" d="M434,254.59c0,2.17,3.43,3.93,7.5,3.93s7.5-1.76,7.5-3.93v-5.42H434Z"/>
        <path class="ax" d="M418,244.84c0,2.17,3.43,3.93,7.5,3.93s7.5-1.76,7.5-3.93v-5.67H418Z"/>
        <ellipse class="as" cx="420.56" cy="262.47" rx="7.37" ry="3.93"/>
        <g>
          <path class="ay" d="M397,257.86c0,2.17,2.93,3.93,7,3.93s7-1.76,7-3.93v-5.69H397Z"/>
          <ellipse class="as" cx="404.01" cy="252.28" rx="6.94" ry="3.7"/>
        </g>
        <ellipse class="as" cx="441.59" cy="249.32" rx="7.37" ry="3.93"/>
        <ellipse class="as" cx="425.3" cy="239.26" rx="7.37" ry="3.93"/>
      </g>
      <path class="k" d="M272.47,113.36v0h0Z"/>
      <g>
        <path class="az" d="M206.76,171.66h0l-12.23,22.61a1.24,1.24,0,0,0,2.34.79l12.23-22.61A1.63,1.63,0,0,1,206.76,171.66Z"/>
        <path class="ba" d="M233.38,176.45a1.24,1.24,0,0,0-1.2-.93,1.22,1.22,0,0,0-.3,0,1.23,1.23,0,0,0-.89,1.5l8.66,34.27a.75.75,0,0,0,1.27.32,2.91,2.91,0,0,0,.68-2.68Z"/>
        <g>
          <polygon class="al" points="181.27 209.93 189.67 243.07 222.96 252.47 214.55 219.3 181.27 209.93"/>
          <polygon class="bb" points="214.55 219.3 222.96 252.47 259.4 216.28 251 183.09 214.55 219.3"/>
          <polygon class="an" points="181.28 209.93 214.55 219.3 251 183.09 217.72 173.73 181.28 209.93"/>
          <path class="bc" d="M221.62,201.36,207.33,205l1.29,5.1c.53,2.1,4.16,3,8.11,2s6.71-3.52,6.18-5.62Z"/>
          <path class="bd" d="M203.54,195.88l-14.28,3.62,1.29,5.1c.53,2.1,4.16,3,8.11,2s6.71-3.52,6.18-5.62Z"/>
          <path class="be" d="M239.12,183.49l-14.28,3.62,1.29,5.1c.53,2.1,4.16,3,8.11,2s6.71-3.51,6.18-5.62Z"/>
          <path class="bf" d="M221,178l-14.28,3.62,1.29,5.1c.53,2.1,4.16,3,8.11,2s6.71-3.52,6.18-5.62Z"/>
          <ellipse class="al" cx="214.47" cy="203.17" rx="7.37" ry="3.93" transform="translate(-43.33 58.89) rotate(-14.22)"/>
          <ellipse class="al" cx="196.4" cy="197.69" rx="7.37" ry="3.93" transform="translate(-42.53 54.28) rotate(-14.22)"/>
          <ellipse class="al" cx="231.98" cy="185.3" rx="7.37" ry="3.93" transform="translate(-38.39 62.62) rotate(-14.21)"/>
          <ellipse class="al" cx="213.9" cy="179.82" rx="7.37" ry="3.93" transform="translate(-37.6 58.01) rotate(-14.21)"/>
        </g>
        <path class="bg" d="M212,171.41h0a1.72,1.72,0,0,1-2,1.55l23.19,28.44a1.16,1.16,0,0,0,1.67.17,1.26,1.26,0,0,0,.3-1.74Z"/>
        <path class="bh" d="M235.25,200.31a1.23,1.23,0,0,0-1.2-.93,1.29,1.29,0,0,0-.3,0,1.24,1.24,0,0,0-.9,1.5l8.66,34.27a.75.75,0,0,0,1.28.32,2.91,2.91,0,0,0,.67-2.68Z"/>
        <path class="bi" d="M208.16,170.57h0L194,214a1.24,1.24,0,1,0,2.36.74l14.17-43.4A1.62,1.62,0,0,1,208.16,170.57Z"/>
        <path class="bj" d="M196.34,213.94a1.24,1.24,0,0,0-1.2-.93,1.26,1.26,0,0,0-.31,0,1.24,1.24,0,0,0-.89,1.5l8.26,32.51a2.91,2.91,0,0,0,1.87,2,.75.75,0,0,0,1-.89Z"/>
        <path class="bk" d="M212.58,170.45h0a1.63,1.63,0,0,1-1.68,1.8l20.29,5.1a1.24,1.24,0,0,0,1.68-1.81Z"/>
        <path class="bl" d="M213.71,165.26c.38,1.68-1.3,3.51-4,4.19-2.84.72-5.65-.17-6.27-2,0,0,1.15,4.57,1.18,4.66.62,1.79,3.43,2.67,6.27,2s4.39-2.55,4-4.25Z"/>
        <path class="y" d="M207.38,163.06c-2.76.7-4.51,2.67-3.9,4.43s3.43,2.67,6.27,2,4.56-2.75,3.87-4.52S210.14,162.36,207.38,163.06Z"/>
        <path class="r" d="M210.64,163.53a1.62,1.62,0,0,0-1.22-1.06,3.83,3.83,0,0,0-3.65.93,1.36,1.36,0,0,0-.39,1.22l.39,1.53a1.6,1.6,0,0,0,1.2,1.07,3.82,3.82,0,0,0,3.69-.93,1.35,1.35,0,0,0,.38-1.2Z"/>
        <path class="bm" d="M209.42,162.47a3.42,3.42,0,0,0-1-.13,3.72,3.72,0,0,0-2.68,1.06c-.79.89-.43,1.91.81,2.29a3.82,3.82,0,0,0,3.69-.93C211,163.86,210.67,162.84,209.42,162.47Z"/>
        <path class="bn" d="M195.43,109h0a1.86,1.86,0,0,1-2.74.68l13.62,53.77a1.41,1.41,0,0,0,2.74-.7Z"/>
        <path class="bo" d="M195.05,151.13s-.13-1-.13-1.36l0-9.74,1.31-.75L192.31,137l-1.31.75,0,9.74c0,2.29.82,3.89,2.12,4.65l3.89,2.26A4.48,4.48,0,0,1,195.05,151.13Z"/>
        <path class="bp" d="M216,123.35l0,9.74a9.19,9.19,0,0,1-.11,1.36l0,.22a11.55,11.55,0,0,1-.3,1.3l0,.12a13.62,13.62,0,0,1-.52,1.41v0a14.46,14.46,0,0,1-.7,1.39l0,0a14.34,14.34,0,0,1-.83,1.27l-.08.11a13.4,13.4,0,0,1-.87,1.05l-.2.21c-.24.25-.5.48-.75.7s-.23.21-.34.3a9.19,9.19,0,0,1-1.12.78l-11.75,6.79a6.71,6.71,0,0,1-1.1.5l-.21.07a4.81,4.81,0,0,1-1,.21s-.06.11-.09.12,0,.11,0,.11h.1v.45l2,1.21s0,0,0,0l.3.15.32.11.21,0h0l.08,0,.36,0h.61l.23,0a4.23,4.23,0,0,0,.52-.11l.22-.08.21-.07.27-.09a6.93,6.93,0,0,0,.83-.41L214,145.63a9,9,0,0,0,1.12-.78l.34-.3c.18-.15.36-.29.52-.46l.23-.25.2-.21.22-.24c.17-.19.33-.39.48-.59l.16-.22.08-.11.15-.2.35-.52.31-.5,0,0,0,0,.23-.41.26-.51.21-.47v-.05c.08-.18.15-.36.22-.54s.14-.37.2-.56.06-.19.09-.28l0-.12.06-.21c.06-.23.12-.46.17-.68s0-.27.07-.41l0-.21c0-.07,0-.13,0-.2a8.87,8.87,0,0,0,.08-1.16l0-9.74,1.3-.75h0l-3.89-2.26Z"/>
        <path class="y" d="M219.87,125.61l0,9.74A13.11,13.11,0,0,1,214,145.64l-11.75,6.79c-3.28,1.89-6,.36-6-3.41l0-9.74-1.3.75,0,9.74c0,4.61,3.29,6.46,7.29,4.15L214,147.13a16,16,0,0,0,7.24-12.54l0-9.74Z"/>
        <path class="bq" d="M159,137.24s-.13-1-.13-1.37l0-9.74,1.31-.75-3.89-2.26h0l-1.31.75,0,9.74c0,2.29.82,3.89,2.12,4.65l3.89,2.26A4.47,4.47,0,0,1,159,137.24Z"/>
        <path class="br" d="M181.24,108.7h0l-1.3.75,0,9.74a8.88,8.88,0,0,1-.11,1.36l0,.22a11.65,11.65,0,0,1-.3,1.3l0,.12a13.37,13.37,0,0,1-.52,1.41v0a14.48,14.48,0,0,1-.7,1.39l0,0a14.28,14.28,0,0,1-.83,1.27l-.08.11a13.4,13.4,0,0,1-.87,1l-.2.21c-.24.25-.5.48-.75.71l-.34.3a9.32,9.32,0,0,1-1.12.78l-11.75,6.79a6.7,6.7,0,0,1-1.1.5l-.21.07a4.83,4.83,0,0,1-1,.21s-.06.06-.08.06,0,.05,0,.05H160v.56l2,1.21s0,0,0,0a2.41,2.41,0,0,0,.28.15l.31.11.2,0h0l.08,0,.36,0h.61l.23,0a4.47,4.47,0,0,0,.52-.11l.22-.08.21-.07.27-.09a7.25,7.25,0,0,0,.83-.41l11.75-6.79A8.89,8.89,0,0,0,179,131l.34-.3c.17-.15.35-.29.52-.46l.23-.24.2-.21.22-.24c.17-.19.33-.39.48-.59l.16-.22.08-.11.15-.21.35-.52.31-.51,0,0,0,0,.23-.41.26-.51.21-.47v-.05c.08-.18.15-.36.22-.54s.14-.37.2-.56l.09-.28,0-.12.06-.21c.06-.23.12-.46.17-.68s0-.27.07-.41l0-.21c0-.07,0-.13,0-.2a9.07,9.07,0,0,0,.07-1.16l0-9.74,1.31-.75Z"/>
        <path class="y" d="M183.83,111.71l0,9.74a13.11,13.11,0,0,1-5.94,10.29l-11.75,6.79c-3.28,1.89-6,.36-6-3.41l0-9.74-1.3.75,0,9.74c0,4.6,3.29,6.46,7.29,4.15l11.75-6.79a16,16,0,0,0,7.24-12.54l0-9.74Z"/>
        <polygon class="y" points="160.21 148.59 170.61 154.59 170.64 144.8 160.24 138.8 160.21 148.59"/>
        <polygon class="r" points="160.24 138.81 170.64 144.82 174.77 142.42 164.37 136.41 160.24 138.81"/>
        <polygon class="bs" points="170.61 154.59 174.75 152.19 174.77 142.4 170.64 144.8 170.61 154.59"/>
        <path class="bt" d="M167,148.11h0s.25-.08.25-.11.12-.08.12-.12.06-.08.05-.12-.2-.08-.21-.12-.21-.08-.21-.12h0s.21-.08.2-.12.09-.09.08-.13,0-.09,0-.13,0-.09,0-.13,0-.07,0-.1h0a.14.14,0,0,1,0,0l0-.13,0-.13,0-.12,0-.12,0-.09h0v0l-.06-.12L167,146l-.08-.15-.09-.16,0,0,0,0-.19-.3-.16-.22h0l-.11-.15-.1-.12-.1-.11-.1-.11,0,0h0l-.08-.08-.11-.11-.11-.1-.11-.1-.06,0h0l0,0-.11-.08-.11-.08-.11-.07-.11-.07h0l-.08,0-.1-.05-.1,0-.1,0-.1,0h0l-.07,0-.1,0-.1,0-.11,0h-.36l-.15,0h0l-.17,0-.2.1-2.75,1.6a1.18,1.18,0,0,1,.37-.14h0a1.55,1.55,0,0,1,.42,0h0a2,2,0,0,1,.47.1h0a2.71,2.71,0,0,1,.51.23,4,4,0,0,1,.5.35h0a4.72,4.72,0,0,1,.46.43h0a5.71,5.71,0,0,1,.42.51h0a6,6,0,0,1,.36.56l0,0a6.4,6.4,0,0,1,.29.58h0a5.43,5.43,0,0,1,.23.62h.16c.06.21.3.41.3.62h0c0,.21-.11.41-.11.61a2.78,2.78,0,0,1-.13.54l-.08,0a2.05,2.05,0,0,1-.14.44h0a1.44,1.44,0,0,1-.19.29l-.07.09a1.22,1.22,0,0,1-.27.23l2.75-1.6a1.16,1.16,0,0,0,.27-.23l.07-.08a1.14,1.14,0,0,0,.09-.11,1.38,1.38,0,0,0,.1-.17h0l.05-.12,0-.13,0-.13v-.06h0v-.05l0-.12s0-.08,0-.12-.24-.08-.24-.12S167,148.15,167,148.11Z"/>
        <path class="y" d="M162.25,145.36c-1.38-.8-2.52-.15-2.52,1.44a5.52,5.52,0,0,0,2.51,4.34c1.39.8,2.52.16,2.52-1.44A5.52,5.52,0,0,0,162.25,145.36Z"/>
        <path class="r" d="M221.62,121.3a10.33,10.33,0,0,1-1,1.13,12.44,12.44,0,0,1-1.1.93l-.14.1a15.35,15.35,0,0,1-1.3.85L197,136.54a18.87,18.87,0,0,1-1.78.9l-.62.25c-.43.17-.86.34-1.31.49l-1.07.33-.54.15c-.58.15-1.16.29-1.76.4l0,7.24c.6-.11,1.18-.25,1.76-.4l.54-.15.8-.23.27-.1c.45-.15.88-.32,1.31-.49l.62-.25a18.62,18.62,0,0,0,1.78-.89L218,131.54l.26-.15c.37-.23.71-.46,1-.7l.14-.09a12.73,12.73,0,0,0,1-.86l.06-.06a10.43,10.43,0,0,0,1-1.13h0a8.39,8.39,0,0,0,.73-1.08v0h42.93c5.31,0,9.62-3.24,9.63-7.24H222.36A8.58,8.58,0,0,1,221.62,121.3Z"/>
        <path class="r" d="M179.23,139.19q-1.16-.19-2.28-.48l-.5-.12a23.84,23.84,0,0,1-2.53-.84l-.15-.07a19.55,19.55,0,0,1-2.38-1.15l-11.22-6.48c-3.11-1.79-4.86-4.09-5.25-6.43H103.25l0-4.29,0,7.24c0,2.37,2.58,4.29,5.72,4.29h46c.39,2.35,2.14,4.64,5.25,6.43l11.22,6.48a19.65,19.65,0,0,0,2.38,1.15l.15.07.09,0c.7.28,1.43.52,2.18.73l.27.07.51.12c.37.09.74.2,1.12.27s.77.14,1.16.2l.4.07.23,0q.88.12,1.76.2l.88.06h0l0-7.24c-1-.05-1.93-.15-2.88-.3Z"/>
        <path class="bu" d="M223.2,115.91c-.39-2.35-2.15-4.63-5.26-6.43L206.72,103a25.31,25.31,0,0,0-11.12-3L195.51,66l-7.33.13h-.06l.09,34.45a22.42,22.42,0,0,0-7.06,2.46l-21.06,12.12a17.11,17.11,0,0,0-4.34,4H103.22l0,4.38,51.66,0c.39,2.35,2.14,4.66,5.25,6.46l11.22,6.49a25.36,25.36,0,0,0,11.13,3l.1,31.2H190l-.1-31.69a22.64,22.64,0,0,0,7.07-2.52L218,124.3a11.36,11.36,0,0,0,4.33-4.1H274.9l0-4.28Z"/>
        <path class="bv" d="M205.68,112.81l-3.46-2a16.57,16.57,0,0,0-7.09-1.83l-2.62-.14-2.61.5a13.64,13.64,0,0,0-4.22,1.46l-13.25,7.7a4.75,4.75,0,0,0,0,8.23l3.46,2a16.63,16.63,0,0,0,7.1,1.82l2.65.14,2.56-.49a13.78,13.78,0,0,0,4.24-1.46l13.25-7.7A4.75,4.75,0,0,0,205.68,112.81Z"/>
        <g>
          <path class="bw" d="M189.38,152.77c-30.48,0-35,19.46-35,19.46v2.35c-.64,11.14,12.39,20.4,30.53,20.4,19.24,0,34.93-10.41,35-22.44,0-.25,0-4.14,0-4.14S212.5,152.77,189.38,152.77ZM184.88,191c-10.31,0-19.47-3.37-23.89-8.79a10.28,10.28,0,0,1-2.43-8.84c1.87-9.14,15.7-16.57,30.82-16.57,9.51,0,18.08,2.91,22.91,7.77a11.11,11.11,0,0,1,3.61,8C215.82,182.35,201.33,191,184.88,191Z"/>
          <path class="k" d="M194.36,171.95v0h0Z"/>
          <path class="bx" d="M194,172.43c0,2.48-3.46,4.53-7.32,4.53-3.62,0-6.33-1.8-6.4-4.07v6.26c0,2.31,2.74,4.16,6.41,4.16,3.86,0,7.14-2,7.36-4.53,0-.14-.06-6.35-.06-6.35Z"/>
          <path class="y" d="M187.7,168c-3.76,0-7.05,2-7.37,4.4s2.55,4.52,6.41,4.52,7.17-2,7.38-4.52S191.46,168,187.7,168Z"/>
          <path class="r" d="M189.87,167.93a5.05,5.05,0,0,0-5,0,2.14,2.14,0,0,0-1.21,1.75v2.11a1.78,1.78,0,0,0,.87,1.42,5,5,0,0,0,5,0,2.11,2.11,0,0,0,1.19-1.76v-2.09A1.8,1.8,0,0,0,189.87,167.93Z"/>
          <path class="q" d="M205.86,159.06h0a1.6,1.6,0,0,0-1.53,0l-18.55,11.12-2.62,1.57a1.68,1.68,0,0,1-1.37.12l-2.18-.83a1.68,1.68,0,0,0-1.37.12L163,179.59a1.33,1.33,0,0,0,.15,1.29,18.19,18.19,0,0,0,2.57,2.28h0a1.61,1.61,0,0,0,1.65,0l19.86-12,2.6-1.57a1.67,1.67,0,0,1,1.36-.12l2.2.82a1.66,1.66,0,0,0,1.36-.12l13.59-8.27c.59-.4.34-1.38.34-1.38S206.84,159.69,205.86,159.06Z"/>
          <path class="by" d="M205.85,158.12h0a1.42,1.42,0,0,0-.74-.19h0a1.58,1.58,0,0,0-.79.2l-18.55,11.11-2.62,1.57a1.68,1.68,0,0,1-1.37.12l-2.19-.83a1.68,1.68,0,0,0-1.37.12L163.47,179c-.44.26-.57.67-.29,1a18.22,18.22,0,0,0,2.57,2.28h0a1.61,1.61,0,0,0,1.65,0l19.86-12,2.6-1.57a1.67,1.67,0,0,1,1.36-.12l2.2.82a1.66,1.66,0,0,0,1.36-.12L208.36,161c.39-.23.46-.6.16-.87A20.36,20.36,0,0,0,205.85,158.12Z"/>
          <path class="bz" d="M189.87,167.93a4.39,4.39,0,0,0-2.42-.65,5.08,5.08,0,0,0-2.55.65c-1.47.88-1.63,2.31-.34,3.19a5,5,0,0,0,5,0C191,170.24,191.17,168.81,189.87,167.93Z"/>
          <path class="ca" d="M189.38,149.43c-17,0-32.44,8.55-34.74,19.78-2.47,12,11,22.44,30.24,22.44s34.93-10.41,35-22.44C220,158,206.33,149.43,189.38,149.43Zm-4.5,38.21c-10.31,0-19.47-3.37-23.89-8.79a10.28,10.28,0,0,1-2.43-8.84c1.87-9.14,15.7-16.57,30.82-16.57,9.51,0,18.08,2.91,22.91,7.77a11.11,11.11,0,0,1,3.61,8C215.82,179,201.33,187.63,184.88,187.63Z"/>
          <path class="cb" d="M160,160l-2.32-.64a19.89,19.89,0,0,0-4.61,8.8,15.3,15.3,0,0,0,.84,9.29l2.73-.71a14.16,14.16,0,0,1-.84-8.58A18.28,18.28,0,0,1,160,160Z"/>
          <path class="cc" d="M153,168.19a15.31,15.31,0,0,0,.84,9.29l2.72-.71a14.16,14.16,0,0,1-.84-8.58A18.25,18.25,0,0,1,160,160h0l-2.32-.64A19.9,19.9,0,0,0,153,168.19Z"/>
          <path class="bw" d="M152.67,171.44h0v3.15a15.75,15.75,0,0,0,1.2,6l1.37-.37V177.8l1.35-.35v-.68l-2.73.71A15.34,15.34,0,0,1,152.67,171.44Z"/>
          <path class="bw" d="M155.44,171.57a14.53,14.53,0,0,1,.31-2.71,18.26,18.26,0,0,1,4.21-8.16V160a18.27,18.27,0,0,0-4.21,8.16A14.5,14.5,0,0,0,155.44,171.57Z"/>
        </g>
        <g>
          <path class="bw" d="M273.38,89.77c-30.48,0-35,19.46-35,19.46v2.35c-.64,11.14,12.39,20.4,30.53,20.4,19.24,0,34.93-10.41,35-22.44,0-.25,0-4.14,0-4.14S296.5,89.77,273.38,89.77ZM268.88,128c-10.31,0-19.47-3.37-23.89-8.79a10.27,10.27,0,0,1-2.43-8.84c1.87-9.14,15.7-16.57,30.82-16.57,9.51,0,18.08,2.91,22.91,7.77a11.11,11.11,0,0,1,3.61,8C299.82,119.35,285.33,128,268.88,128Z"/>
          <path class="k" d="M278.36,108.95v0h0Z"/>
          <path class="cd" d="M278,109.43c0,2.48-3.46,4.53-7.32,4.53-3.62,0-6.33-1.8-6.4-4.07v6.26c0,2.31,2.74,4.16,6.41,4.16,3.86,0,7.14-2,7.36-4.53,0-.14-.06-6.35-.06-6.35Z"/>
          <path class="y" d="M271.7,105c-3.76,0-7.05,2-7.37,4.4s2.55,4.52,6.41,4.52,7.17-2,7.38-4.52S275.46,105,271.7,105Z"/>
          <path class="r" d="M273.87,104.93a5.05,5.05,0,0,0-5,0,2.14,2.14,0,0,0-1.21,1.75v2.11a1.78,1.78,0,0,0,.87,1.42,5,5,0,0,0,5,0,2.11,2.11,0,0,0,1.19-1.76v-2.09A1.8,1.8,0,0,0,273.87,104.93Z"/>
          <path class="q" d="M289.85,96.06h0a1.6,1.6,0,0,0-1.53,0l-18.55,11.12-2.62,1.57a1.68,1.68,0,0,1-1.37.12l-2.18-.83a1.68,1.68,0,0,0-1.37.12L247,116.59a1.33,1.33,0,0,0,.15,1.29,18.18,18.18,0,0,0,2.57,2.28h0a1.61,1.61,0,0,0,1.64,0l19.86-12,2.6-1.57a1.67,1.67,0,0,1,1.36-.12l2.2.82a1.66,1.66,0,0,0,1.36-.12l13.58-8.27c.59-.4.35-1.38.35-1.38S290.84,96.69,289.85,96.06Z"/>
          <path class="ce" d="M289.85,95.12h0a1.42,1.42,0,0,0-.74-.19h0a1.58,1.58,0,0,0-.79.2l-18.55,11.11-2.62,1.57a1.68,1.68,0,0,1-1.37.12l-2.19-.83a1.68,1.68,0,0,0-1.37.12L247.47,116c-.44.26-.57.67-.29,1a18.23,18.23,0,0,0,2.57,2.28h0a1.61,1.61,0,0,0,1.65,0l19.86-12,2.6-1.57a1.67,1.67,0,0,1,1.36-.12l2.2.82a1.67,1.67,0,0,0,1.36-.12L292.36,98c.38-.23.46-.6.16-.87A20.42,20.42,0,0,0,289.85,95.12Z"/>
          <path class="cf" d="M273.87,104.93a4.4,4.4,0,0,0-2.42-.65,5.08,5.08,0,0,0-2.55.65c-1.47.88-1.63,2.31-.34,3.19a5,5,0,0,0,5,0C275,107.24,275.17,105.81,273.87,104.93Z"/>
          <path class="ca" d="M273.38,86.43c-17,0-32.44,8.55-34.74,19.78-2.47,12,11,22.44,30.24,22.44s34.93-10.41,35-22.44C304,95,290.33,86.43,273.38,86.43Zm-4.5,38.21c-10.31,0-19.47-3.37-23.89-8.79a10.27,10.27,0,0,1-2.43-8.84c1.87-9.14,15.7-16.57,30.82-16.57,9.51,0,18.08,2.91,22.91,7.77a11.11,11.11,0,0,1,3.61,8C299.82,116,285.33,124.63,268.88,124.63Z"/>
          <path class="cb" d="M244,97l-2.32-.64a19.88,19.88,0,0,0-4.61,8.8,15.3,15.3,0,0,0,.84,9.29l2.73-.71a14.16,14.16,0,0,1-.84-8.58A18.27,18.27,0,0,1,244,97Z"/>
          <path class="cg" d="M237,105.19a15.3,15.3,0,0,0,.84,9.29l2.72-.71a14.16,14.16,0,0,1-.84-8.58A18.24,18.24,0,0,1,244,97h0l-2.32-.64A19.89,19.89,0,0,0,237,105.19Z"/>
          <path class="bw" d="M236.67,108.44h0v3.15a15.75,15.75,0,0,0,1.2,6l1.37-.37V114.8l1.35-.35v-.68l-2.73.71A15.34,15.34,0,0,1,236.67,108.44Z"/>
          <path class="bw" d="M239.44,108.57a14.53,14.53,0,0,1,.3-2.71A18.27,18.27,0,0,1,244,97.71V97a18.28,18.28,0,0,0-4.21,8.16A14.44,14.44,0,0,0,239.44,108.57Z"/>
        </g>
        <g>
          <path class="bw" d="M194.38,37.77c-30.48,0-35,19.46-35,19.46v2.35C158.71,70.73,171.75,80,189.88,80c19.24,0,34.93-10.41,35-22.44,0-.25,0-4.14,0-4.14S217.5,37.77,194.38,37.77ZM189.88,76c-10.31,0-19.47-3.37-23.89-8.79a10.28,10.28,0,0,1-2.43-8.84c1.87-9.14,15.7-16.57,30.82-16.57,9.51,0,18.08,2.91,22.91,7.77a11.11,11.11,0,0,1,3.61,8C220.82,67.35,206.33,76,189.88,76Z"/>
          <path class="k" d="M199.36,56.95v0h0Z"/>
          <path class="ch" d="M199,57.43c0,2.48-3.46,4.53-7.32,4.53-3.62,0-6.33-1.8-6.4-4.07v6.26c0,2.31,2.74,4.16,6.41,4.16,3.86,0,7.14-2,7.36-4.53,0-.14-.06-6.35-.06-6.35Z"/>
          <path class="y" d="M192.7,53c-3.76,0-7.05,2-7.37,4.4S187.89,62,191.75,62s7.17-2,7.38-4.52S196.46,53,192.7,53Z"/>
          <path class="r" d="M194.87,52.93a5.05,5.05,0,0,0-5,0,2.14,2.14,0,0,0-1.21,1.75v2.11a1.78,1.78,0,0,0,.87,1.42,5,5,0,0,0,5,0,2.11,2.11,0,0,0,1.19-1.76V54.36A1.8,1.8,0,0,0,194.87,52.93Z"/>
          <path class="q" d="M210.86,44.06h0a1.6,1.6,0,0,0-1.53,0L190.76,55.18l-2.62,1.57a1.68,1.68,0,0,1-1.37.12L184.58,56a1.68,1.68,0,0,0-1.37.12L168,64.59a1.33,1.33,0,0,0,.15,1.29,18.19,18.19,0,0,0,2.57,2.28h0a1.61,1.61,0,0,0,1.65,0l19.86-12,2.6-1.57a1.67,1.67,0,0,1,1.36-.12l2.2.82a1.66,1.66,0,0,0,1.36-.12l13.58-8.27c.59-.4.35-1.38.35-1.38S211.84,44.69,210.86,44.06Z"/>
          <path class="ci" d="M210.85,43.12h0a1.42,1.42,0,0,0-.74-.19h0a1.58,1.58,0,0,0-.79.2L190.76,54.24l-2.62,1.57a1.68,1.68,0,0,1-1.37.12l-2.19-.83a1.68,1.68,0,0,0-1.37.12L168.47,64c-.44.26-.57.67-.29,1a18.22,18.22,0,0,0,2.57,2.28h0a1.61,1.61,0,0,0,1.65,0l19.86-12,2.6-1.57a1.67,1.67,0,0,1,1.36-.12l2.2.82a1.66,1.66,0,0,0,1.36-.12L213.36,46c.38-.23.46-.6.16-.87A20.37,20.37,0,0,0,210.85,43.12Z"/>
          <path class="cj" d="M194.87,52.93a4.39,4.39,0,0,0-2.42-.65,5.08,5.08,0,0,0-2.55.65c-1.47.88-1.63,2.31-.34,3.19a5,5,0,0,0,5,0C196,55.24,196.17,53.81,194.87,52.93Z"/>
          <path class="ca" d="M194.38,34.43c-17,0-32.44,8.55-34.74,19.78-2.47,12,11,22.44,30.24,22.44s34.93-10.41,35-22.44C225,43,211.33,34.43,194.38,34.43Zm-4.5,38.21c-10.31,0-19.47-3.37-23.89-8.79A10.27,10.27,0,0,1,163.56,55c1.87-9.14,15.7-16.57,30.82-16.57,9.51,0,18.08,2.91,22.91,7.77a11.11,11.11,0,0,1,3.61,8C220.82,64,206.33,72.63,189.88,72.63Z"/>
          <path class="cb" d="M165,45l-2.32-.64a19.89,19.89,0,0,0-4.61,8.8,15.3,15.3,0,0,0,.84,9.29l2.73-.71a14.16,14.16,0,0,1-.84-8.58A18.28,18.28,0,0,1,165,45Z"/>
          <path class="ck" d="M158,53.19a15.31,15.31,0,0,0,.84,9.29l2.72-.71a14.16,14.16,0,0,1-.84-8.58A18.25,18.25,0,0,1,165,45h0l-2.32-.64A19.9,19.9,0,0,0,158,53.19Z"/>
          <path class="bw" d="M157.67,56.44h0V59.6a15.75,15.75,0,0,0,1.2,6l1.37-.37V62.8l1.35-.35v-.68l-2.73.71A15.34,15.34,0,0,1,157.67,56.44Z"/>
          <path class="bw" d="M160.44,56.57a14.53,14.53,0,0,1,.31-2.71A18.26,18.26,0,0,1,165,45.71V45a18.27,18.27,0,0,0-4.21,8.16A14.5,14.5,0,0,0,160.44,56.57Z"/>
        </g>
        <g>
          <path class="bw" d="M108.38,95.77c-30.48,0-35,19.46-35,19.46v2.35c-.64,11.14,12.39,20.4,30.53,20.4,19.24,0,34.93-10.41,35-22.44,0-.25,0-4.14,0-4.14S131.5,95.77,108.38,95.77ZM103.88,134c-10.31,0-19.47-3.37-23.89-8.79a10.28,10.28,0,0,1-2.43-8.84c1.87-9.14,15.7-16.57,30.82-16.57,9.51,0,18.08,2.91,22.91,7.77a11.11,11.11,0,0,1,3.61,8C134.82,125.35,120.33,134,103.88,134Z"/>
          <path class="k" d="M113.36,114.95v0h0Z"/>
          <path class="cl" d="M113,115.43c0,2.48-3.46,4.53-7.32,4.53-3.62,0-6.33-1.8-6.4-4.07v6.26c0,2.31,2.74,4.16,6.41,4.16,3.86,0,7.14-2,7.36-4.53,0-.14-.06-6.35-.06-6.35Z"/>
          <path class="y" d="M106.7,111c-3.76,0-7.05,2-7.37,4.4s2.55,4.52,6.41,4.52,7.17-2,7.38-4.52S110.46,111,106.7,111Z"/>
          <path class="r" d="M108.87,110.93a5.05,5.05,0,0,0-5,0,2.14,2.14,0,0,0-1.21,1.75v2.11a1.78,1.78,0,0,0,.87,1.42,5,5,0,0,0,5,0,2.11,2.11,0,0,0,1.19-1.76v-2.09A1.8,1.8,0,0,0,108.87,110.93Z"/>
          <path class="q" d="M124.86,102.06h0a1.6,1.6,0,0,0-1.53,0l-18.55,11.12-2.62,1.57a1.68,1.68,0,0,1-1.37.12L98.58,114a1.68,1.68,0,0,0-1.37.12L82,122.59a1.33,1.33,0,0,0,.14,1.29,18.19,18.19,0,0,0,2.57,2.28h0a1.61,1.61,0,0,0,1.65,0l19.86-12,2.6-1.57a1.67,1.67,0,0,1,1.36-.12l2.2.82a1.66,1.66,0,0,0,1.36-.12l13.58-8.27c.59-.4.34-1.38.34-1.38S125.84,102.69,124.86,102.06Z"/>
          <path class="cm" d="M124.85,101.12h0a1.42,1.42,0,0,0-.74-.19h0a1.58,1.58,0,0,0-.79.2l-18.55,11.11-2.62,1.57a1.68,1.68,0,0,1-1.37.12l-2.19-.83a1.68,1.68,0,0,0-1.37.12L82.47,122c-.44.26-.57.67-.29,1a18.22,18.22,0,0,0,2.57,2.28h0a1.61,1.61,0,0,0,1.65,0l19.86-12,2.6-1.57a1.67,1.67,0,0,1,1.36-.12l2.2.82a1.66,1.66,0,0,0,1.36-.12L127.36,104c.39-.23.46-.6.16-.87A20.36,20.36,0,0,0,124.85,101.12Z"/>
          <path class="cn" d="M108.87,110.93a4.39,4.39,0,0,0-2.42-.65,5.08,5.08,0,0,0-2.55.65c-1.47.88-1.63,2.31-.34,3.19a5,5,0,0,0,5,0C110,113.24,110.17,111.81,108.87,110.93Z"/>
          <path class="ca" d="M108.38,92.43c-17,0-32.44,8.55-34.74,19.78-2.47,12,11,22.44,30.24,22.44s34.93-10.41,35-22.44C139,101,125.33,92.43,108.38,92.43Zm-4.5,38.21c-10.31,0-19.47-3.37-23.89-8.79A10.27,10.27,0,0,1,77.56,113c1.87-9.14,15.7-16.57,30.82-16.57,9.51,0,18.08,2.91,22.91,7.77a11.11,11.11,0,0,1,3.61,8C134.82,122,120.33,130.63,103.88,130.63Z"/>
          <path class="cb" d="M79,103l-2.32-.64a19.89,19.89,0,0,0-4.61,8.8,15.3,15.3,0,0,0,.84,9.29l2.73-.71a14.16,14.16,0,0,1-.84-8.58A18.28,18.28,0,0,1,79,103Z"/>
          <path class="co" d="M72,111.19a15.31,15.31,0,0,0,.84,9.29l2.72-.71a14.16,14.16,0,0,1-.84-8.58A18.25,18.25,0,0,1,79,103h0l-2.32-.64A19.9,19.9,0,0,0,72,111.19Z"/>
          <path class="bw" d="M71.67,114.44h0v3.15a15.75,15.75,0,0,0,1.2,6l1.37-.37V120.8l1.35-.35v-.68l-2.73.71A15.34,15.34,0,0,1,71.67,114.44Z"/>
          <path class="bw" d="M74.44,114.57a14.53,14.53,0,0,1,.31-2.71A18.26,18.26,0,0,1,79,103.71V103a18.27,18.27,0,0,0-4.21,8.16A14.5,14.5,0,0,0,74.44,114.57Z"/>
        </g>
      </g>
      <polygon class="cp" points="273.73 396.17 382.79 396.17 425.82 370.17 316.76 370.17 273.73 396.17"/>
      <polygon class="cq" points="519.01 346.17 519.01 345.8 518.39 346.17 519.01 346.17"/>
      <polygon class="cr" points="408.91 371.17 475.94 371.17 513.39 346.17 451.94 346.17 408.91 371.17"/>
      <g>
        <path class="cs" d="M261,342.51c-6.57-2.63-15.72-8.32-20.29-10.19a3.11,3.11,0,0,0-1.15-.2c-1.5,0-3.44.89-3.34,3.81.13,3.79,17.7,13.59,25,14.08C263.91,350.2,269,345.73,261,342.51Z"/>
        <path class="ct" d="M267.63,381.45c-10.85,0-22.88,5-25.91,6.41-.15.07-1.37,1.43-1.29,1.65.34.91,2.19,2.07,3.3,1.46,4.85-2.62,25.62-1.8,27.43-5.17a3.19,3.19,0,0,0,.39-2.65C271,381.65,268.93,381.45,267.63,381.45Z"/>
        <path class="ct" d="M242.81,370.62A5.59,5.59,0,0,0,238,374a3.59,3.59,0,0,0,.48,3.24c1,1.49,3.07,2.59,6.11,3.27,3.7.82,8.48,2.39,12.7,3.78,3.49,1.14,6.78,2.22,9,2.74,1.82.42,4.92-.14,5.78-2.68a4.79,4.79,0,0,0,0-2.92C270.63,376.43,249.34,370.27,242.81,370.62Z"/>
        <path class="r" d="M243.81,391.25a5.55,5.55,0,0,1-.19-1.77l-2.91-.63a3.22,3.22,0,0,1-1.07.79,1.72,1.72,0,0,0-.87,1.42c0,1.46,1.64,2.15,1.83,3a4.42,4.42,0,0,0,1.83,2.8c1.2.8,4.8.3,5.22-.28C248.47,395.41,245.25,395,243.81,391.25Z"/>
        <path class="ct" d="M241.72,387.86a8.34,8.34,0,0,0-1.89,1.69s1.94,2.11,3,2.11,1.07-.49,1-.79a2.28,2.28,0,0,1,.28-1.84Z"/>
        <path class="i" d="M258.56,386.87c-10.85,0-22.88,5-25.91,6.41-.15.07-1.37,1.43-1.29,1.65.34.91,2.19,2.07,3.3,1.46,4.85-2.62,25.62-1.8,27.43-5.17a3.19,3.19,0,0,0,.39-2.65C261.92,387.07,259.86,386.87,258.56,386.87Z"/>
        <path class="i" d="M233.74,376a5.59,5.59,0,0,0-4.78,3.4,3.59,3.59,0,0,0,.48,3.24c1,1.49,3.07,2.59,6.11,3.27,3.7.82,8.48,2.39,12.7,3.78,3.49,1.14,6.78,2.22,9,2.74,1.82.42,4.91-.14,5.78-2.68a4.79,4.79,0,0,0,0-2.92C261.56,381.85,240.27,375.69,233.74,376Z"/>
        <path class="r" d="M234.75,396.67a5.53,5.53,0,0,1-.19-1.77l-2.91-.63a3.22,3.22,0,0,1-1.07.79,1.72,1.72,0,0,0-.87,1.42c0,1.46,1.64,2.15,1.83,3a4.41,4.41,0,0,0,1.83,2.8c1.2.8,4.8.3,5.22-.28C239.4,400.83,236.18,400.4,234.75,396.67Z"/>
        <path class="i" d="M232.65,393.28a8.32,8.32,0,0,0-1.89,1.69s1.94,2.11,3,2.11,1.07-.49,1-.79a2.28,2.28,0,0,1,.28-1.84Z"/>
        <path class="cu" d="M247.4,361c-.37-8.49.43-16.67-.05-19.62-.41-2.51-.46-6.56-5.3-8.5a16.71,16.71,0,0,0-6.29-1.11c-.06,0-.43,0-1,0a19.16,19.16,0,0,0-6.81,1.23c-3.15,1.23-4.65,3.67-6,8.47-.41,1.41.82,11,.23,22.76-.53,10.49-10.94,25.06-10.94,34.79,0,0,22.68.28,28.57-8.62,11.17-16.89,17.52-16,22.52-15.46h0C249.77,367.2,247.81,370.57,247.4,361Z"/>
        <path class="cv" d="M247.39,360.77a37,37,0,0,1-16.08,3.46,40.78,40.78,0,0,1-9.16-1c0,.32,0,.65,0,1-.07,1.42-.24,3-.49,4.73a40.07,40.07,0,0,0,9.68,1.16,36.44,36.44,0,0,0,16.85-3.85h0a29.06,29.06,0,0,1-.77-5.24C247.4,360.91,247.39,360.84,247.39,360.77Z"/>
        <g>
          <polygon class="x" points="244.12 344.27 274.08 361.52 318.01 335.37 288.34 318.12 244.12 344.27"/>
          <polygon class="y" points="244.12 378.45 274.08 395.74 274.08 361.52 244.12 344.27 244.12 378.45"/>
          <polygon class="cw" points="274.01 395.74 318.01 369.6 318.01 335.37 274.01 361.52 274.01 395.74"/>
          <path class="cx" d="M271,350.92c0,2.28,2.72,4.13,7,4.13s7-1.85,7-4.13v-4.75H271Z"/>
          <path class="cy" d="M254,341.37c0,2.17,3.43,3.93,7.5,3.93s7.5-1.76,7.5-3.93v-5.21H254Z"/>
          <path class="cz" d="M292,338.1c0,2.17,3.43,3.93,7.5,3.93s7.5-1.76,7.5-3.93v-4.94H292Z"/>
          <path class="da" d="M276,328.35c0,2.17,2.93,3.93,7,3.93s7-1.76,7-3.93v-5.19H276Z"/>
          <ellipse class="y" cx="283.01" cy="323.09" rx="7" ry="3.73"/>
          <ellipse class="y" cx="277.96" cy="345.86" rx="7.05" ry="3.76"/>
          <ellipse class="y" cx="299.48" cy="332.84" rx="7.53" ry="4.02"/>
          <ellipse class="y" cx="261.51" cy="336.11" rx="7.37" ry="3.93"/>
        </g>
        <path class="ag" d="M235.76,331.75a19.39,19.39,0,0,0-7.84,1.2,1.59,1.59,0,0,0-.34,1c0,1.79,3.33,3.24,7.44,3.24s7.44-1.45,7.44-3.24a1.67,1.67,0,0,0-.41-1.05A16.75,16.75,0,0,0,235.76,331.75Z"/>
        <path class="i" d="M237.72,328.36c-1.22.22-5.91-1.59-6.35-1.81.77,1.74.79,5.69.28,6.42,1.61,2.36,6.24,1.55,6.45.09C237.17,331.56,237.74,328.63,237.72,328.36Z"/>
        <path class="i" d="M235.41,316.83c-3.12.44-4.81,3.3-4.37,6.39l.45,3.21c.33,2.33,4.44,5.49,6.41,4.77,4.66-1.69,4.44-10.63,4.13-11.6C241.19,316.89,238.31,316.42,235.41,316.83Z"/>
        <path class="i" d="M231.63,321.3c-.86.1-1.43,1.26-1.33,2.12s1.06,2.75,1.9,2.87a5.49,5.49,0,0,1,.27-4.92A1.91,1.91,0,0,0,231.63,321.3Z"/>
        <g>
          <path class="i" d="M271.64,354a6.49,6.49,0,0,1-1.57,1.13c.69-.22.76.22,1.51.1.27-.13,1-1.26.79-1.47S271.88,353.73,271.64,354Z"/>
          <path class="i" d="M276.54,354.43a11.2,11.2,0,0,0-1.76,0c-.14,0-2.16.13-3.05.29a15.8,15.8,0,0,0-2.19.51l-.11,0-.42.15-.38.15a7.37,7.37,0,0,1,1.58,2.85c1.26-.19,4.47-1,4.57-1,1.58-.06,1.93-.59,1.62-.91-.08-.08,1-.47.73-.84a1,1,0,0,0,.18-.55A3.91,3.91,0,0,0,276.54,354.43Z"/>
          <path class="db" d="M249.68,353c-5.73-4.15-13.21-11.9-17.19-14.84a3.52,3.52,0,0,0-2-.59c-1.3,0-2.75.7-3.24,3-.8,3.7,13.85,17.49,20.76,19.75C250.65,361.13,256.71,358.05,249.68,353Z"/>
          <path class="dc" d="M258.46,354.28c-3.23-.19-6.27-.38-8.55-.38-.5,0-1,0-1.38,0-1.44.07-4.25,1.79-2.54,5.17,1.53,3,16.88,1.28,25.17-.28a17.75,17.75,0,0,1-.3-4.22C267.22,354.77,262.67,354.52,258.46,354.28Z"/>
        </g>
        <path class="y" d="M242.46,314.33a2.68,2.68,0,0,0-2.66-.29s0-.47-2.35-1.76c-1.88-1-7.25-1.51-10.19,1.18s-4.11,6.43-3,11.29-.2,9-1.47,10.45a12.19,12.19,0,0,0-2.59,7.56c0,9.82,9.75,14.62,9.75,14.62s-2.71-10.78,1.26-19.26c2.76-5.9.95-8,.57-10.64-.49-3.48,3.39-1.46,6.27-6a12.87,12.87,0,0,0,1.65-4.42s4.73,1.68,1.12,11.28C243.34,326.55,246.17,317.26,242.46,314.33Z"/>
        <path class="dd" d="M234.74,315.55c-4.23,2.17-4.59,4.08-5.35,6.45,0,0,4.43-6.16,11.55-6.08A5.8,5.8,0,0,0,234.74,315.55Z"/>
      </g>
      <g>
        <path class="i" d="M454.65,259.88c.09.29,1.43.18,1.67,0,.47-.6.11-.87.63-1.37a6.45,6.45,0,0,1-1.74.84C454.88,259.44,454.48,259.44,454.65,259.88Z"/>
        <path class="i" d="M458.08,257.48l-.31.27-.33.29-.09.08a15.9,15.9,0,0,0-1.5,1.68c-.56.71-1.63,2.42-1.71,2.55a11.24,11.24,0,0,0-.88,1.52,3.88,3.88,0,0,0,.24,1,1,1,0,0,0,.57.11c.22.38,1.06-.34,1.09-.24.13.43.76.38,1.57-1,0-.08,2.33-2.5,3.1-3.52a6.72,6.72,0,0,1-1.46-2.07A7,7,0,0,1,458.08,257.48Z"/>
        <path class="ag" d="M464.55,213.92c-3.64-1.07-4.81,2-4.61,3.45.68,4.9,3.92,15.17,4.84,22.19,1.13,8.6,6.73,4.75,7.23,2C473.33,234.44,468.19,215,464.55,213.92Z"/>
        <path class="ag" d="M466.18,239c-2.52,4.16-6.4,13.91-10.06,20a17.8,17.8,0,0,1,3.57,2.27c5.32-6.55,14.16-19.21,12.25-22C469.79,236.13,466.93,237.78,466.18,239Z"/>
      </g>
      <g>
        <path class="r" d="M331.51,293.18l-.89-1-2.87,2.37a23.2,23.2,0,0,1,1.38,2c.67,1.18,1.53,3.15,1.86,3.75.54,1,1.41,1,2.4.43s1.72-2.85,1.12-4C334.12,296.08,332.83,293.22,331.51,293.18Z"/>
        <path class="i" d="M330.63,292.23l-2.87,2.37s.66.87,1.09,1.55c.22.06.38-.46,1-.89.79-.53,1.79-.79,1.82-1.24a3,3,0,0,0-.18-.84C331,292.61,330.63,292.23,330.63,292.23Z"/>
        <path class="r" d="M262.05,308.14s-.73.74-1.31,1.2c-1.12.9-5.57,2-5.7,3.41-.07.71,1.63,1.53,3.07,1.71a4.41,4.41,0,0,0,3.22-.91c.69-.5,3-.63,3.34-1a1.72,1.72,0,0,0,.28-1.64l.46-1.52Z"/>
        <path class="i" d="M260.74,309.35a4.72,4.72,0,0,0,1.63,1.56,6,6,0,0,0,2.57,0l.46-1.52L262,308A6.07,6.07,0,0,1,260.74,309.35Z"/>
        <path class="de" d="M292,241.92c-1,2-12,7.06-13.45,6.54.33.56,18.24,29.69,18.24,29.69l29.54,17.12c2.39.37,5.44-2.52,5.43-2.66l-25.9-20.48S292.77,243.21,292,241.92Z"/>
        <path class="df" d="M274.11,236.53c-.26,1.32-12.57,71.05-12.57,71.05,1,3,5.59,2.14,5.68,2s20.34-64.46,21-67.48C286.18,242.74,274.85,238,274.11,236.53Z"/>
        <path class="y" d="M293.91,200.29a19.4,19.4,0,0,0-7.84-1.2,16.73,16.73,0,0,0-6.29,1.11c-4.83,1.94-5.77,6-6.19,8.5-1.15,7-4.49,44.92-4.49,44.92C280,265.75,304,264,304,264c0-20.65-2.45-52.56-3.22-55.22C299.45,204,297.06,201.52,293.91,200.29Z"/>
        <path class="i" d="M284.11,195.71c0,.27.56,3.2-.39,4.7.21,1.46,4.84,2.27,6.45-.09-.51-.73-.49-4.68.28-6.42C290,194.12,285.33,195.93,284.11,195.71Z"/>
        <path class="dg" d="M285.59,201.22a1.33,1.33,0,0,0-1.07.08,2.12,2.12,0,0,0,1.3.42A.59.59,0,0,0,285.59,201.22Z"/>
        <path class="dg" d="M285.81,201.73a3.42,3.42,0,0,0,1.8,0,1.92,1.92,0,0,0-1.3-.42A.75.75,0,0,0,285.81,201.73Z"/>
        <path class="i" d="M286.42,184.18c-2.9-.41-5.78.06-6.62,2.77-.3,1-.52,9.91,4.13,11.6,2,.71,6.08-2.44,6.41-4.77l.45-3.21C291.23,187.48,289.54,184.62,286.42,184.18Z"/>
        <path class="r" d="M278.37,183.5c-1.72,3.29-2.91.82-2.7-.07-.61,2.23.2,4.25,4.58,4.25.92,0-1,1.06-1,1.06s5.88.62,10.19-1.4c1.81,2.82.68,7.72.68,7.72,1.92,1.19,3.58-1,3.58-1s-2.36.21-1-1.6c2.66-3.51,3.6-9-.09-12.37C288.43,176.28,280.68,179.09,278.37,183.5Z"/>
        <path class="i" d="M290.2,188.64a1.9,1.9,0,0,0-.84.07,5.49,5.49,0,0,1,.27,4.92c.83-.12,1.8-2.06,1.9-2.87S291.07,188.75,290.2,188.64Z"/>
        <path class="dh" d="M289.83,198.32c-.47,2.73-3.53,3-3.53,3,1.6.21,2.82,3.57,2.82,3.57,1.2-1,3-4.45,2.27-5.32A4.57,4.57,0,0,0,289.83,198.32Z"/>
        <path class="dh" d="M284.22,198.79a2.26,2.26,0,0,0-1.29.53c-.76.55-.92,3.13-.35,4.23,0,0,1.24-2.71,3-2.32A2.14,2.14,0,0,1,284.22,198.79Z"/>
        <g>
          <path class="i" d="M251.77,213.34c-.19-.3-.32-.67-.68-.36s.29,1.41.54,1.59c.72.25.86-.17,1.5.16A6.42,6.42,0,0,1,251.77,213.34Z"/>
          <path class="i" d="M253.73,215l-.11-.05a15.87,15.87,0,0,0-2.08-.87c-.85-.3-2.82-.76-3-.79a11.23,11.23,0,0,0-1.72-.34,3.85,3.85,0,0,0-.87.54,1,1,0,0,0,.08.57c-.29.33.66.89.58,1-.36.27-.11.84,1.44,1.17.09,0,3.12,1.39,4.33,1.79a6.71,6.71,0,0,1,1.48-2.05,7.06,7.06,0,0,1,.55-.49l-.35-.21Z"/>
          <path class="di" d="M294.45,203.92a3.27,3.27,0,0,0-1.43.3c-4.41,2.23-13.09,8.62-19.43,11.76-7.78,3.85-2.31,7.9.42,7.49,7.19-1.07,23.93-12.22,23.76-16C297.65,204.74,295.9,203.92,294.45,203.92Z"/>
          <path class="dj" d="M274.56,217.13c-4.75-1-15.23-1.56-22.14-3.06a17.75,17.75,0,0,1-1,4.11c7.92,2.92,22.76,7.18,24.77,4.47C278.46,219.6,276,217.44,274.56,217.13Z"/>
        </g>
      </g>
      <g>
        <polygon class="as" points="128.39 357.94 158.35 375.22 158.35 341 128.39 323.75 128.39 357.94"/>
        <polygon class="dk" points="158.26 375.08 202.18 349.57 202.18 315.23 158.26 340.85 158.26 375.08"/>
        <polygon class="au" points="128.39 323.8 158.35 341.05 202.18 315.23 172.61 297.65 128.39 323.8"/>
        <path class="dl" d="M155,330.61c0,2.17,3.43,3.93,7.5,3.93s7.5-1.76,7.5-3.93v-5.44H155Z"/>
        <path class="dm" d="M176,317.59c0,2.17,3.43,3.93,7.5,3.93s7.5-1.76,7.5-3.93v-5.42H176Z"/>
        <path class="dn" d="M160,307.84c0,2.17,3.43,3.93,7.5,3.93s7.5-1.76,7.5-3.93v-5.67H160Z"/>
        <ellipse class="as" cx="162.56" cy="325.47" rx="7.37" ry="3.93"/>
        <g>
          <path class="do" d="M139,320.86c0,2.17,2.93,3.93,7,3.93s7-1.76,7-3.93v-5.69H139Z"/>
          <ellipse class="as" cx="146.01" cy="315.28" rx="6.94" ry="3.7"/>
        </g>
        <ellipse class="as" cx="183.59" cy="312.32" rx="7.37" ry="3.93"/>
        <ellipse class="as" cx="167.3" cy="302.26" rx="7.37" ry="3.93"/>
      </g>
    </g>
  </g>
</svg>
